<mxfile host="app.diagrams.net" modified="2022-09-19T00:47:41.008Z" agent="5.0 (Macintosh; Intel Mac OS X 10_15_7) AppleWebKit/605.1.15 (KHTML, like Gecko) Version/15.6.1 Safari/605.1.15" etag="eXFcsnRLBd7X85dOfCoz" version="20.3.0" type="github">
  <diagram name="Page-1" id="5f0bae14-7c28-e335-631c-24af17079c00">
    <mxGraphModel dx="2686" dy="3435" grid="1" gridSize="10" guides="1" tooltips="1" connect="1" arrows="1" fold="1" page="1" pageScale="1" pageWidth="1100" pageHeight="850" background="none" math="0" shadow="0">
      <root>
        <mxCell id="0" />
        <mxCell id="1" parent="0" />
        <mxCell id="-aslIin6-l7YJVMK6JKz-2" value="" style="shape=folder;fontStyle=1;spacingTop=10;tabWidth=40;tabHeight=14;tabPosition=left;html=1;fillColor=#E6D0DE;" vertex="1" parent="1">
          <mxGeometry x="-10" y="-1970" width="1350" height="420" as="geometry" />
        </mxCell>
        <mxCell id="-aslIin6-l7YJVMK6JKz-3" value="" style="shape=folder;fontStyle=1;spacingTop=10;tabWidth=40;tabHeight=14;tabPosition=left;html=1;fillColor=#FF99FF;" vertex="1" parent="1">
          <mxGeometry x="-10" y="-420" width="1440" height="330" as="geometry" />
        </mxCell>
        <mxCell id="-aslIin6-l7YJVMK6JKz-4" value="" style="shape=folder;fontStyle=1;spacingTop=10;tabWidth=40;tabHeight=14;tabPosition=left;html=1;fillColor=#FFFF66;" vertex="1" parent="1">
          <mxGeometry x="-10" y="-1490" width="730" height="180" as="geometry" />
        </mxCell>
        <mxCell id="-aslIin6-l7YJVMK6JKz-5" value="" style="shape=folder;fontStyle=1;spacingTop=10;tabWidth=40;tabHeight=14;tabPosition=left;html=1;fillColor=#CCFFCC;" vertex="1" parent="1">
          <mxGeometry x="-10" y="-1240" width="1430" height="760" as="geometry" />
        </mxCell>
        <mxCell id="-aslIin6-l7YJVMK6JKz-53" style="edgeStyle=orthogonalEdgeStyle;rounded=0;orthogonalLoop=1;jettySize=auto;html=1;fillColor=#FF0000;" edge="1" parent="1" source="-aslIin6-l7YJVMK6JKz-6" target="-aslIin6-l7YJVMK6JKz-12">
          <mxGeometry relative="1" as="geometry">
            <Array as="points">
              <mxPoint x="280" y="-800" />
            </Array>
          </mxGeometry>
        </mxCell>
        <mxCell id="-aslIin6-l7YJVMK6JKz-6" value="«component»&lt;br&gt;&lt;b&gt;RecopiladorDatos&lt;/b&gt;" style="html=1;dropTarget=0;fillColor=#9999FF;" vertex="1" parent="1">
          <mxGeometry x="190" y="-1130" width="180" height="90" as="geometry" />
        </mxCell>
        <mxCell id="-aslIin6-l7YJVMK6JKz-7" value="" style="shape=module;jettyWidth=8;jettyHeight=4;" vertex="1" parent="-aslIin6-l7YJVMK6JKz-6">
          <mxGeometry x="1" width="20" height="20" relative="1" as="geometry">
            <mxPoint x="-27" y="7" as="offset" />
          </mxGeometry>
        </mxCell>
        <mxCell id="-aslIin6-l7YJVMK6JKz-8" value="«component»&lt;br&gt;&lt;b&gt;GestorDispositivos&lt;/b&gt;" style="html=1;dropTarget=0;fillColor=#FF6666;" vertex="1" parent="1">
          <mxGeometry x="540" y="-1010" width="180" height="90" as="geometry" />
        </mxCell>
        <mxCell id="-aslIin6-l7YJVMK6JKz-9" value="" style="shape=module;jettyWidth=8;jettyHeight=4;" vertex="1" parent="-aslIin6-l7YJVMK6JKz-8">
          <mxGeometry x="1" width="20" height="20" relative="1" as="geometry">
            <mxPoint x="-27" y="7" as="offset" />
          </mxGeometry>
        </mxCell>
        <mxCell id="-aslIin6-l7YJVMK6JKz-10" value="«component»&lt;br&gt;&lt;b&gt;Notificacion&lt;/b&gt;" style="html=1;dropTarget=0;" vertex="1" parent="1">
          <mxGeometry x="942.5" y="-1140" width="180" height="90" as="geometry" />
        </mxCell>
        <mxCell id="-aslIin6-l7YJVMK6JKz-11" value="" style="shape=module;jettyWidth=8;jettyHeight=4;" vertex="1" parent="-aslIin6-l7YJVMK6JKz-10">
          <mxGeometry x="1" width="20" height="20" relative="1" as="geometry">
            <mxPoint x="-27" y="7" as="offset" />
          </mxGeometry>
        </mxCell>
        <mxCell id="-aslIin6-l7YJVMK6JKz-54" style="edgeStyle=orthogonalEdgeStyle;rounded=0;orthogonalLoop=1;jettySize=auto;html=1;entryX=1;entryY=0.5;entryDx=0;entryDy=0;fillColor=#FF0000;" edge="1" parent="1" source="-aslIin6-l7YJVMK6JKz-12" target="-aslIin6-l7YJVMK6JKz-8">
          <mxGeometry relative="1" as="geometry" />
        </mxCell>
        <mxCell id="-aslIin6-l7YJVMK6JKz-12" value="«component»&lt;br&gt;&lt;b&gt;GestorSeñalesMonitoreo&lt;br&gt;&lt;/b&gt;" style="html=1;dropTarget=0;" vertex="1" parent="1">
          <mxGeometry x="830" y="-1000" width="180" height="130" as="geometry" />
        </mxCell>
        <mxCell id="-aslIin6-l7YJVMK6JKz-13" value="" style="shape=module;jettyWidth=8;jettyHeight=4;" vertex="1" parent="-aslIin6-l7YJVMK6JKz-12">
          <mxGeometry x="1" width="20" height="20" relative="1" as="geometry">
            <mxPoint x="-27" y="7" as="offset" />
          </mxGeometry>
        </mxCell>
        <mxCell id="-aslIin6-l7YJVMK6JKz-56" style="edgeStyle=orthogonalEdgeStyle;rounded=0;orthogonalLoop=1;jettySize=auto;html=1;entryX=0.75;entryY=1;entryDx=0;entryDy=0;fillColor=#FF0000;" edge="1" parent="1" source="-aslIin6-l7YJVMK6JKz-14" target="-aslIin6-l7YJVMK6JKz-10">
          <mxGeometry relative="1" as="geometry" />
        </mxCell>
        <mxCell id="-aslIin6-l7YJVMK6JKz-57" style="edgeStyle=orthogonalEdgeStyle;rounded=0;orthogonalLoop=1;jettySize=auto;html=1;fillColor=#FF0000;" edge="1" parent="1" source="-aslIin6-l7YJVMK6JKz-14" target="-aslIin6-l7YJVMK6JKz-12">
          <mxGeometry relative="1" as="geometry">
            <Array as="points">
              <mxPoint x="1040" y="-820" />
              <mxPoint x="970" y="-820" />
            </Array>
          </mxGeometry>
        </mxCell>
        <mxCell id="-aslIin6-l7YJVMK6JKz-72" style="edgeStyle=orthogonalEdgeStyle;rounded=0;orthogonalLoop=1;jettySize=auto;html=1;fillColor=#FF0000;" edge="1" parent="1" source="-aslIin6-l7YJVMK6JKz-14" target="-aslIin6-l7YJVMK6JKz-16">
          <mxGeometry relative="1" as="geometry">
            <Array as="points">
              <mxPoint x="1115" y="-560" />
              <mxPoint x="290" y="-560" />
            </Array>
          </mxGeometry>
        </mxCell>
        <mxCell id="-aslIin6-l7YJVMK6JKz-74" style="edgeStyle=orthogonalEdgeStyle;rounded=0;orthogonalLoop=1;jettySize=auto;html=1;fillColor=#FF0000;" edge="1" parent="1" source="-aslIin6-l7YJVMK6JKz-14" target="-aslIin6-l7YJVMK6JKz-19">
          <mxGeometry relative="1" as="geometry">
            <Array as="points">
              <mxPoint x="1200" y="-205" />
            </Array>
          </mxGeometry>
        </mxCell>
        <mxCell id="-aslIin6-l7YJVMK6JKz-14" value="«component»&lt;br&gt;&lt;b&gt;GestorUbicacion&lt;br&gt;&lt;/b&gt;" style="html=1;dropTarget=0;" vertex="1" parent="1">
          <mxGeometry x="1000" y="-770" width="230" height="90" as="geometry" />
        </mxCell>
        <mxCell id="-aslIin6-l7YJVMK6JKz-15" value="" style="shape=module;jettyWidth=8;jettyHeight=4;" vertex="1" parent="-aslIin6-l7YJVMK6JKz-14">
          <mxGeometry x="1" width="20" height="20" relative="1" as="geometry">
            <mxPoint x="-27" y="7" as="offset" />
          </mxGeometry>
        </mxCell>
        <mxCell id="-aslIin6-l7YJVMK6JKz-16" value="«component»&lt;br&gt;&lt;b&gt;DatosHistoricos&lt;br&gt;&lt;/b&gt;" style="html=1;dropTarget=0;" vertex="1" parent="1">
          <mxGeometry x="200" y="-370" width="180" height="140" as="geometry" />
        </mxCell>
        <mxCell id="-aslIin6-l7YJVMK6JKz-17" value="" style="shape=module;jettyWidth=8;jettyHeight=4;" vertex="1" parent="-aslIin6-l7YJVMK6JKz-16">
          <mxGeometry x="1" width="20" height="20" relative="1" as="geometry">
            <mxPoint x="-27" y="7" as="offset" />
          </mxGeometry>
        </mxCell>
        <mxCell id="-aslIin6-l7YJVMK6JKz-18" style="edgeStyle=orthogonalEdgeStyle;rounded=0;orthogonalLoop=1;jettySize=auto;html=1;entryX=0.433;entryY=0.999;entryDx=0;entryDy=0;entryPerimeter=0;" edge="1" parent="1" source="-aslIin6-l7YJVMK6JKz-19" target="-aslIin6-l7YJVMK6JKz-16">
          <mxGeometry relative="1" as="geometry" />
        </mxCell>
        <mxCell id="-aslIin6-l7YJVMK6JKz-19" value="«component»&lt;br&gt;&lt;b&gt;MotorBusqueda&lt;/b&gt;" style="html=1;dropTarget=0;" vertex="1" parent="1">
          <mxGeometry x="915.5" y="-250" width="180" height="90" as="geometry" />
        </mxCell>
        <mxCell id="-aslIin6-l7YJVMK6JKz-20" value="" style="shape=module;jettyWidth=8;jettyHeight=4;" vertex="1" parent="-aslIin6-l7YJVMK6JKz-19">
          <mxGeometry x="1" width="20" height="20" relative="1" as="geometry">
            <mxPoint x="-27" y="7" as="offset" />
          </mxGeometry>
        </mxCell>
        <mxCell id="-aslIin6-l7YJVMK6JKz-21" style="edgeStyle=orthogonalEdgeStyle;rounded=0;orthogonalLoop=1;jettySize=auto;html=1;" edge="1" parent="1" source="-aslIin6-l7YJVMK6JKz-22" target="-aslIin6-l7YJVMK6JKz-16">
          <mxGeometry relative="1" as="geometry" />
        </mxCell>
        <mxCell id="-aslIin6-l7YJVMK6JKz-22" value="«component»&lt;br&gt;&lt;b&gt;GeneradorReporte&lt;/b&gt;" style="html=1;dropTarget=0;" vertex="1" parent="1">
          <mxGeometry x="520" y="-345" width="180" height="90" as="geometry" />
        </mxCell>
        <mxCell id="-aslIin6-l7YJVMK6JKz-23" value="" style="shape=module;jettyWidth=8;jettyHeight=4;" vertex="1" parent="-aslIin6-l7YJVMK6JKz-22">
          <mxGeometry x="1" width="20" height="20" relative="1" as="geometry">
            <mxPoint x="-27" y="7" as="offset" />
          </mxGeometry>
        </mxCell>
        <mxCell id="-aslIin6-l7YJVMK6JKz-30" style="edgeStyle=orthogonalEdgeStyle;rounded=0;orthogonalLoop=1;jettySize=auto;html=1;" edge="1" parent="1" source="-aslIin6-l7YJVMK6JKz-24" target="-aslIin6-l7YJVMK6JKz-19">
          <mxGeometry relative="1" as="geometry">
            <Array as="points">
              <mxPoint x="1005" y="-650" />
            </Array>
          </mxGeometry>
        </mxCell>
        <mxCell id="-aslIin6-l7YJVMK6JKz-31" style="edgeStyle=orthogonalEdgeStyle;rounded=0;orthogonalLoop=1;jettySize=auto;html=1;" edge="1" parent="1" source="-aslIin6-l7YJVMK6JKz-24" target="-aslIin6-l7YJVMK6JKz-22">
          <mxGeometry relative="1" as="geometry" />
        </mxCell>
        <mxCell id="-aslIin6-l7YJVMK6JKz-55" style="edgeStyle=orthogonalEdgeStyle;rounded=0;orthogonalLoop=1;jettySize=auto;html=1;fillColor=#FF0000;" edge="1" parent="1" source="-aslIin6-l7YJVMK6JKz-24" target="-aslIin6-l7YJVMK6JKz-14">
          <mxGeometry relative="1" as="geometry" />
        </mxCell>
        <mxCell id="-aslIin6-l7YJVMK6JKz-24" value="«component»&lt;br&gt;&lt;b&gt;Clientes&lt;/b&gt;" style="html=1;dropTarget=0;" vertex="1" parent="1">
          <mxGeometry x="470" y="-730" width="180" height="90" as="geometry" />
        </mxCell>
        <mxCell id="-aslIin6-l7YJVMK6JKz-25" value="" style="shape=module;jettyWidth=8;jettyHeight=4;" vertex="1" parent="-aslIin6-l7YJVMK6JKz-24">
          <mxGeometry x="1" width="20" height="20" relative="1" as="geometry">
            <mxPoint x="-27" y="7" as="offset" />
          </mxGeometry>
        </mxCell>
        <mxCell id="-aslIin6-l7YJVMK6JKz-29" style="edgeStyle=orthogonalEdgeStyle;rounded=0;orthogonalLoop=1;jettySize=auto;html=1;entryX=0;entryY=0.5;entryDx=0;entryDy=0;" edge="1" parent="1" source="-aslIin6-l7YJVMK6JKz-27" target="-aslIin6-l7YJVMK6JKz-24">
          <mxGeometry relative="1" as="geometry" />
        </mxCell>
        <mxCell id="-aslIin6-l7YJVMK6JKz-27" value="«component»&lt;br&gt;&lt;b&gt;Autenticación&lt;/b&gt;" style="html=1;dropTarget=0;" vertex="1" parent="1">
          <mxGeometry x="75" y="-730" width="180" height="90" as="geometry" />
        </mxCell>
        <mxCell id="-aslIin6-l7YJVMK6JKz-28" value="" style="shape=module;jettyWidth=8;jettyHeight=4;" vertex="1" parent="-aslIin6-l7YJVMK6JKz-27">
          <mxGeometry x="1" width="20" height="20" relative="1" as="geometry">
            <mxPoint x="-27" y="7" as="offset" />
          </mxGeometry>
        </mxCell>
        <mxCell id="-aslIin6-l7YJVMK6JKz-41" style="edgeStyle=orthogonalEdgeStyle;rounded=0;orthogonalLoop=1;jettySize=auto;html=1;" edge="1" parent="1" source="-aslIin6-l7YJVMK6JKz-32" target="-aslIin6-l7YJVMK6JKz-10">
          <mxGeometry relative="1" as="geometry">
            <Array as="points">
              <mxPoint x="780" y="-1795" />
              <mxPoint x="780" y="-1095" />
            </Array>
          </mxGeometry>
        </mxCell>
        <mxCell id="-aslIin6-l7YJVMK6JKz-32" value="«component»&lt;br&gt;&lt;b&gt;Cliente Web&lt;/b&gt;" style="html=1;dropTarget=0;" vertex="1" parent="1">
          <mxGeometry x="520" y="-1850" width="180" height="90" as="geometry" />
        </mxCell>
        <mxCell id="-aslIin6-l7YJVMK6JKz-33" value="" style="shape=module;jettyWidth=8;jettyHeight=4;" vertex="1" parent="-aslIin6-l7YJVMK6JKz-32">
          <mxGeometry x="1" width="20" height="20" relative="1" as="geometry">
            <mxPoint x="-27" y="7" as="offset" />
          </mxGeometry>
        </mxCell>
        <mxCell id="-aslIin6-l7YJVMK6JKz-40" style="edgeStyle=orthogonalEdgeStyle;rounded=0;orthogonalLoop=1;jettySize=auto;html=1;" edge="1" parent="1" source="-aslIin6-l7YJVMK6JKz-34" target="-aslIin6-l7YJVMK6JKz-10">
          <mxGeometry relative="1" as="geometry" />
        </mxCell>
        <mxCell id="-aslIin6-l7YJVMK6JKz-34" value="«component»&lt;br&gt;&lt;b&gt;Cliente Movil&lt;/b&gt;" style="html=1;dropTarget=0;" vertex="1" parent="1">
          <mxGeometry x="1106" y="-1860" width="180" height="90" as="geometry" />
        </mxCell>
        <mxCell id="-aslIin6-l7YJVMK6JKz-35" value="" style="shape=module;jettyWidth=8;jettyHeight=4;" vertex="1" parent="-aslIin6-l7YJVMK6JKz-34">
          <mxGeometry x="1" width="20" height="20" relative="1" as="geometry">
            <mxPoint x="-27" y="7" as="offset" />
          </mxGeometry>
        </mxCell>
        <mxCell id="-aslIin6-l7YJVMK6JKz-46" style="edgeStyle=orthogonalEdgeStyle;rounded=0;orthogonalLoop=1;jettySize=auto;html=1;fillColor=#9999FF;" edge="1" parent="1" source="-aslIin6-l7YJVMK6JKz-36" target="-aslIin6-l7YJVMK6JKz-6">
          <mxGeometry relative="1" as="geometry" />
        </mxCell>
        <mxCell id="-aslIin6-l7YJVMK6JKz-36" value="«component»&lt;br&gt;&lt;b&gt;Gateway&lt;/b&gt;" style="html=1;dropTarget=0;fillColor=#9999FF;" vertex="1" parent="1">
          <mxGeometry x="188" y="-1430" width="180" height="90" as="geometry" />
        </mxCell>
        <mxCell id="-aslIin6-l7YJVMK6JKz-37" value="" style="shape=module;jettyWidth=8;jettyHeight=4;" vertex="1" parent="-aslIin6-l7YJVMK6JKz-36">
          <mxGeometry x="1" width="20" height="20" relative="1" as="geometry">
            <mxPoint x="-27" y="7" as="offset" />
          </mxGeometry>
        </mxCell>
        <mxCell id="-aslIin6-l7YJVMK6JKz-44" style="edgeStyle=orthogonalEdgeStyle;rounded=0;orthogonalLoop=1;jettySize=auto;html=1;entryX=0.183;entryY=-0.007;entryDx=0;entryDy=0;entryPerimeter=0;" edge="1" parent="1" source="-aslIin6-l7YJVMK6JKz-42" target="-aslIin6-l7YJVMK6JKz-10">
          <mxGeometry relative="1" as="geometry" />
        </mxCell>
        <mxCell id="-aslIin6-l7YJVMK6JKz-45" style="edgeStyle=orthogonalEdgeStyle;rounded=0;orthogonalLoop=1;jettySize=auto;html=1;" edge="1" parent="1" source="-aslIin6-l7YJVMK6JKz-42" target="-aslIin6-l7YJVMK6JKz-36">
          <mxGeometry relative="1" as="geometry" />
        </mxCell>
        <mxCell id="-aslIin6-l7YJVMK6JKz-51" style="edgeStyle=orthogonalEdgeStyle;rounded=0;orthogonalLoop=1;jettySize=auto;html=1;fillColor=#FF0000;" edge="1" parent="1" source="-aslIin6-l7YJVMK6JKz-42" target="-aslIin6-l7YJVMK6JKz-49">
          <mxGeometry relative="1" as="geometry">
            <Array as="points">
              <mxPoint x="623" y="-1670" />
            </Array>
          </mxGeometry>
        </mxCell>
        <mxCell id="-aslIin6-l7YJVMK6JKz-42" value="«component»&lt;br&gt;&lt;b&gt;Sensor&lt;/b&gt;" style="html=1;dropTarget=0;" vertex="1" parent="1">
          <mxGeometry x="188" y="-1740" width="180" height="90" as="geometry" />
        </mxCell>
        <mxCell id="-aslIin6-l7YJVMK6JKz-43" value="" style="shape=module;jettyWidth=8;jettyHeight=4;" vertex="1" parent="-aslIin6-l7YJVMK6JKz-42">
          <mxGeometry x="1" width="20" height="20" relative="1" as="geometry">
            <mxPoint x="-27" y="7" as="offset" />
          </mxGeometry>
        </mxCell>
        <mxCell id="-aslIin6-l7YJVMK6JKz-47" value="Nivel intermediación" style="text;html=1;strokeColor=none;fillColor=none;align=center;verticalAlign=middle;whiteSpace=wrap;rounded=0;" vertex="1" parent="1">
          <mxGeometry x="320" y="-1470" width="135" height="30" as="geometry" />
        </mxCell>
        <mxCell id="-aslIin6-l7YJVMK6JKz-52" style="edgeStyle=orthogonalEdgeStyle;rounded=0;orthogonalLoop=1;jettySize=auto;html=1;fillColor=#9999FF;" edge="1" parent="1" source="-aslIin6-l7YJVMK6JKz-49" target="-aslIin6-l7YJVMK6JKz-8">
          <mxGeometry relative="1" as="geometry" />
        </mxCell>
        <mxCell id="-aslIin6-l7YJVMK6JKz-49" value="«component»&lt;br&gt;&lt;b&gt;ColaMensajes&lt;/b&gt;" style="html=1;dropTarget=0;fillColor=#FF6666;" vertex="1" parent="1">
          <mxGeometry x="533" y="-1180" width="180" height="90" as="geometry" />
        </mxCell>
        <mxCell id="-aslIin6-l7YJVMK6JKz-50" value="" style="shape=module;jettyWidth=8;jettyHeight=4;" vertex="1" parent="-aslIin6-l7YJVMK6JKz-49">
          <mxGeometry x="1" width="20" height="20" relative="1" as="geometry">
            <mxPoint x="-27" y="7" as="offset" />
          </mxGeometry>
        </mxCell>
        <mxCell id="-aslIin6-l7YJVMK6JKz-58" value="Gestor de ubicaciones y eventos" style="text;html=1;align=center;verticalAlign=middle;resizable=0;points=[];autosize=1;strokeColor=none;fillColor=none;" vertex="1" parent="1">
          <mxGeometry x="815.5" y="-460" width="200" height="30" as="geometry" />
        </mxCell>
        <mxCell id="-aslIin6-l7YJVMK6JKz-59" value="Generar reportes" style="edgeLabel;html=1;align=center;verticalAlign=middle;resizable=0;points=[];" vertex="1" connectable="0" parent="1">
          <mxGeometry x="665" y="-445" as="geometry" />
        </mxCell>
        <mxCell id="-aslIin6-l7YJVMK6JKz-61" value="Obtención datos" style="text;html=1;align=center;verticalAlign=middle;resizable=0;points=[];autosize=1;strokeColor=none;fillColor=none;" vertex="1" parent="1">
          <mxGeometry x="410" y="-330" width="110" height="30" as="geometry" />
        </mxCell>
        <mxCell id="-aslIin6-l7YJVMK6JKz-62" value="Obtención ubicaciones y eventos" style="text;html=1;align=center;verticalAlign=middle;resizable=0;points=[];autosize=1;strokeColor=none;fillColor=none;" vertex="1" parent="1">
          <mxGeometry x="545" y="-180" width="200" height="30" as="geometry" />
        </mxCell>
        <mxCell id="-aslIin6-l7YJVMK6JKz-63" value="Gestor Ubicacion" style="text;html=1;align=center;verticalAlign=middle;resizable=0;points=[];autosize=1;strokeColor=none;fillColor=none;" vertex="1" parent="1">
          <mxGeometry x="700" y="-720" width="120" height="30" as="geometry" />
        </mxCell>
        <mxCell id="-aslIin6-l7YJVMK6JKz-64" value="Gestion login" style="text;html=1;align=center;verticalAlign=middle;resizable=0;points=[];autosize=1;strokeColor=none;fillColor=none;" vertex="1" parent="1">
          <mxGeometry x="320" y="-720" width="90" height="30" as="geometry" />
        </mxCell>
        <mxCell id="-aslIin6-l7YJVMK6JKz-65" value="Gestor notificaciones" style="text;html=1;align=center;verticalAlign=middle;resizable=0;points=[];autosize=1;strokeColor=none;fillColor=none;" vertex="1" parent="1">
          <mxGeometry x="1080" y="-940" width="140" height="30" as="geometry" />
        </mxCell>
        <mxCell id="-aslIin6-l7YJVMK6JKz-66" value="Gestor Acciones" style="text;html=1;align=center;verticalAlign=middle;resizable=0;points=[];autosize=1;strokeColor=none;fillColor=none;" vertex="1" parent="1">
          <mxGeometry x="993" y="-850" width="110" height="30" as="geometry" />
        </mxCell>
        <mxCell id="-aslIin6-l7YJVMK6JKz-67" value="Enviar datos" style="text;html=1;align=center;verticalAlign=middle;resizable=0;points=[];autosize=1;strokeColor=none;fillColor=none;" vertex="1" parent="1">
          <mxGeometry x="460" y="-830" width="90" height="30" as="geometry" />
        </mxCell>
        <mxCell id="-aslIin6-l7YJVMK6JKz-68" value="Gestor configuracion" style="text;html=1;align=center;verticalAlign=middle;resizable=0;points=[];autosize=1;strokeColor=none;fillColor=none;" vertex="1" parent="1">
          <mxGeometry x="710" y="-1000" width="140" height="30" as="geometry" />
        </mxCell>
        <mxCell id="-aslIin6-l7YJVMK6JKz-69" value="Nivel Presentación" style="text;html=1;strokeColor=none;fillColor=#FFFFFF;align=center;verticalAlign=middle;whiteSpace=wrap;rounded=0;" vertex="1" parent="1">
          <mxGeometry x="657" y="-1950" width="123" height="30" as="geometry" />
        </mxCell>
        <mxCell id="-aslIin6-l7YJVMK6JKz-70" value="Nivel Logica &amp;nbsp;Negocio" style="text;html=1;strokeColor=none;fillColor=#FFFFFF;align=center;verticalAlign=middle;whiteSpace=wrap;rounded=0;" vertex="1" parent="1">
          <mxGeometry x="635" y="-1230" width="140" height="40" as="geometry" />
        </mxCell>
        <mxCell id="-aslIin6-l7YJVMK6JKz-71" value="Nivel Persistencia" style="text;html=1;strokeColor=none;fillColor=#FFFFFF;align=center;verticalAlign=middle;whiteSpace=wrap;rounded=0;" vertex="1" parent="1">
          <mxGeometry x="630" y="-400" width="213" height="30" as="geometry" />
        </mxCell>
        <mxCell id="-aslIin6-l7YJVMK6JKz-73" value="Registro y obtención datos" style="text;html=1;align=center;verticalAlign=middle;resizable=0;points=[];autosize=1;strokeColor=none;fillColor=none;" vertex="1" parent="1">
          <mxGeometry x="255" y="-450" width="240" height="30" as="geometry" />
        </mxCell>
        <mxCell id="-aslIin6-l7YJVMK6JKz-75" value="Gestor consulta reglas monitoreo" style="text;html=1;align=center;verticalAlign=middle;resizable=0;points=[];autosize=1;strokeColor=none;fillColor=none;" vertex="1" parent="1">
          <mxGeometry x="1210" y="-460" width="200" height="30" as="geometry" />
        </mxCell>
      </root>
    </mxGraphModel>
  </diagram>
</mxfile>
